# xmcd
#
# Track frame offsets: 
#        150
#        26010
#        55408
#        71043
#        87991
#        108873
#        131784
#        158877
#        178666
#        200300
#        224378
#        240856
#        271692
#        296865
#        330932
#
# Disc length: 4659 seconds
#
# Revision: 2
# Processed by: cddbd v1.5.2PL0 Copyright (c) Steve Scherf et al.
# Submitted via: ExactAudioCopy v0.99pb5
#
DISCID=d712310f
DTITLE=Various Artist - Tales Of South African Jazz
DYEAR=2005
DGENRE=Jazz
TTITLE0=Jimmy Dludlu - Linda
TTITLE1=Steve Dyer - Quinsa Indlu
TTITLE2=Hugh Maskela - You Keep Me Hangin' On
TTITLE3=Mike Makhalemele - Emakhaya
TTITLE4=Sankomota - Now Or Never
TTITLE5=McCoy Mrubata - Face The Music
TTITLE6=Gloria Bosman - Amaqwati
TTITLE7=Prince Kupi - Botsotsi
TTITLE8=Louis Mhlanga - Shamwari
TTITLE9=Sipho Gumdede - Township Jive
TTITLE10=Big Voice Jack Lerole - Across Afrika
TTITLE11=Errol Dyers - Sonesta
TTITLE12=Winston Mankunku Ngozi - Give Peace A Chance
TTITLE13=Ngoawana, Zim - Qula Kwedini
TTITLE14=Paul Hanmer - After Cecil And Alarice Marry
EXTD=YEAR: 2005
EXTT0=
EXTT1=
EXTT2=
EXTT3=
EXTT4=
EXTT5=
EXTT6=
EXTT7=
EXTT8=
EXTT9=
EXTT10=
EXTT11=
EXTT12=
EXTT13=
EXTT14=
PLAYORDER=
